FILE "Community Pom (Japan) (En) (LIPEMCO! Translations) (v1.0).bin" BINARY
  TRACK 01 MODE2/2352
    INDEX 01 00:00:00
  TRACK 02 AUDIO
    INDEX 00 09:39:50
    INDEX 01 09:41:50
  TRACK 03 AUDIO
    INDEX 00 10:21:71
    INDEX 01 10:23:71
  TRACK 04 AUDIO
    INDEX 00 11:35:03
    INDEX 01 11:37:03
  TRACK 05 AUDIO
    INDEX 00 14:49:31
    INDEX 01 14:51:31
